<svg width="44" height="44" viewBox="0 0 44 44" fill="none" xmlns="http://www.w3.org/2000/svg">
<rect x="0.5" y="0.5" width="43" height="43" rx="21.5" stroke="#F7F5F5"/>
<path d="M13.2615 25.326C13.1308 25.4692 13.0446 25.6472 13.0133 25.8385C12.982 26.0298 13.007 26.226 13.0852 26.4034C13.1633 26.5807 13.2914 26.7316 13.4537 26.8375C13.616 26.9434 13.8056 26.9999 13.9995 27H29.9995C30.1933 27.0001 30.3829 26.9438 30.5453 26.8381C30.7077 26.7324 30.8359 26.5817 30.9143 26.4045C30.9927 26.2273 31.0179 26.0311 30.9869 25.8398C30.9558 25.6485 30.8699 25.4703 30.7395 25.327C29.4095 23.956 27.9995 22.499 27.9995 18C27.9995 16.4087 27.3673 14.8826 26.2421 13.7574C25.1169 12.6321 23.5908 12 21.9995 12C20.4082 12 18.882 12.6321 17.7568 13.7574C16.6316 14.8826 15.9995 16.4087 15.9995 18C15.9995 22.499 14.5885 23.956 13.2615 25.326Z" stroke="#121212" stroke-width="2" stroke-linecap="round" stroke-linejoin="round"/>
<path d="M20.268 31C20.4435 31.304 20.696 31.5565 21 31.732C21.3041 31.9075 21.6489 31.9999 22 31.9999C22.3511 31.9999 22.6959 31.9075 23 31.732C23.304 31.5565 23.5565 31.304 23.732 31" stroke="#121212" stroke-width="2" stroke-linecap="round" stroke-linejoin="round"/>
</svg>
