<svg width="20" height="20" viewBox="0 0 20 20" fill="none" xmlns="http://www.w3.org/2000/svg">
<path d="M7.22471 9.75196C7.87302 11.0774 8.94742 12.1469 10.2757 12.7891C10.3729 12.8352 10.4804 12.8551 10.5877 12.847C10.6949 12.8389 10.7983 12.803 10.8873 12.7429L12.8432 11.4386C12.9297 11.381 13.0293 11.3457 13.1328 11.3362C13.2364 11.3267 13.3407 11.3432 13.4363 11.3841L17.0953 12.9523C17.2197 13.0051 17.3234 13.0969 17.3911 13.2138C17.4587 13.3307 17.4865 13.4665 17.4702 13.6005C17.3546 14.5055 16.913 15.3374 16.2282 15.9402C15.5434 16.5431 14.6623 16.8757 13.75 16.8757C10.9321 16.8757 8.22957 15.7563 6.23699 13.7638C4.24442 11.7712 3.125 9.06871 3.125 6.25075C3.12505 5.33838 3.45765 4.45731 4.06053 3.77252C4.66342 3.08773 5.49523 2.64616 6.40023 2.53051C6.53431 2.51429 6.67002 2.54207 6.78693 2.60968C6.90384 2.6773 6.99561 2.78107 7.04842 2.90537L8.618 6.56771C8.65858 6.66243 8.67508 6.76573 8.66617 6.86841C8.65717 6.97107 8.62292 7.06993 8.5665 7.15616L7.26676 9.14204C7.2076 9.23146 7.17263 9.33454 7.16526 9.44145C7.15789 9.54837 7.17837 9.65529 7.22471 9.75196Z" stroke="#0A84FF" stroke-width="1.5" stroke-linecap="round" stroke-linejoin="round"/>
</svg>
