<svg width="20" height="20" viewBox="0 0 20 20" fill="none" xmlns="http://www.w3.org/2000/svg">
<path d="M6.87514 10.5364L13.9 16.7182C13.9812 16.7897 14.0797 16.8389 14.1857 16.861C14.2917 16.883 14.4016 16.877 14.5046 16.8439C14.6077 16.8106 14.7003 16.7512 14.7735 16.6714C14.8466 16.5916 14.8979 16.4941 14.922 16.3886L17.8606 3.56576C17.886 3.45489 17.8807 3.33919 17.8452 3.23113C17.8097 3.12307 17.7454 3.02674 17.6592 2.95252C17.573 2.87831 17.4682 2.82903 17.356 2.80998C17.244 2.79093 17.1287 2.80284 17.0229 2.84442L2.60435 8.50887C2.47869 8.55821 2.3724 8.64696 2.30137 8.76179C2.23034 8.87654 2.1984 9.01129 2.21033 9.14579C2.22226 9.28029 2.27742 9.40729 2.36754 9.50779C2.45767 9.60829 2.57792 9.67696 2.71032 9.70346L6.87514 10.5364Z" stroke="#0A84FF" stroke-width="1.55" stroke-linecap="round" stroke-linejoin="round"/>
<path d="M6.875 10.5364L17.5087 2.85645" stroke="#0A84FF" stroke-width="1.55" stroke-linecap="round" stroke-linejoin="round"/>
<path d="M10.3833 13.6245L7.94194 16.0659C7.85453 16.1534 7.74317 16.2129 7.62193 16.2369C7.50069 16.2611 7.37502 16.2487 7.26082 16.2014C7.14662 16.1541 7.04901 16.074 6.98033 15.9712C6.91166 15.8684 6.875 15.7476 6.875 15.6239V10.5371" stroke="#0A84FF" stroke-width="1.55" stroke-linecap="round" stroke-linejoin="round"/>
</svg>
